<svg width="145" height="125" viewBox="0 0 145 125" fill="none" xmlns="http://www.w3.org/2000/svg">
<path d="M11.247 14H127.753C128.994 14 130 14.6807 130 15.5203V97.4797C130 98.3193 128.994 99 127.753 99H11.247C10.0061 99 9 98.3193 9 97.4797V15.5203C9 14.6807 10.0061 14 11.247 14Z" fill="white" stroke="#312E2E" stroke-miterlimit="10" stroke-linecap="round" stroke-linejoin="round"/>
<path d="M15.6973 23.2307C16.5225 23.2307 17.1914 22.5618 17.1914 21.7366C17.1914 20.9114 16.5225 20.2424 15.6973 20.2424C14.8721 20.2424 14.2031 20.9114 14.2031 21.7366C14.2031 22.5618 14.8721 23.2307 15.6973 23.2307Z" fill="#312E2E" stroke="#312E2E" stroke-width="0.215294" stroke-miterlimit="10"/>
<path d="M20.8613 23.2307C21.6865 23.2307 22.3555 22.5618 22.3555 21.7366C22.3555 20.9114 21.6865 20.2424 20.8613 20.2424C20.0361 20.2424 19.3672 20.9114 19.3672 21.7366C19.3672 22.5618 20.0361 23.2307 20.8613 23.2307Z" fill="#312E2E" stroke="#312E2E" stroke-width="0.215294" stroke-miterlimit="10"/>
<path d="M26.0254 23.2307C26.8506 23.2307 27.5195 22.5618 27.5195 21.7366C27.5195 20.9114 26.8506 20.2424 26.0254 20.2424C25.2002 20.2424 24.5312 20.9114 24.5312 21.7366C24.5312 22.5618 25.2002 23.2307 26.0254 23.2307Z" fill="#312E2E" stroke="#312E2E" stroke-width="0.215294" stroke-miterlimit="10"/>
<path d="M11 26H128" stroke="#312E2E" stroke-width="1.38727" stroke-miterlimit="10"/>
<path d="M58 42V50L87 50" stroke="#312E2E"/>
<path d="M58 68V60L87 60" stroke="#312E2E"/>
<path d="M47 55H56L85 55" stroke="#312E2E" stroke-dasharray="5 5"/>
<path d="M57.8153 43.3618C58.8179 43.3618 59.6307 42.6092 59.6307 41.6809C59.6307 40.7526 58.8179 40 57.8153 40C56.8128 40 56 40.7526 56 41.6809C56 42.6092 56.8128 43.3618 57.8153 43.3618Z" fill="white" stroke="#312E2E" stroke-miterlimit="10"/>
<path d="M44.8153 56.3618C45.8179 56.3618 46.6307 55.6092 46.6307 54.6809C46.6307 53.7526 45.8179 53 44.8153 53C43.8128 53 43 53.7526 43 54.6809C43 55.6092 43.8128 56.3618 44.8153 56.3618Z" fill="white" stroke="#312E2E" stroke-miterlimit="10"/>
<path d="M57.8153 71.3618C58.8179 71.3618 59.6307 70.6092 59.6307 69.6809C59.6307 68.7526 58.8179 68 57.8153 68C56.8128 68 56 68.7526 56 69.6809C56 70.6092 56.8128 71.3618 57.8153 71.3618Z" fill="white" stroke="#312E2E" stroke-miterlimit="10"/>
<path d="M107.389 53.498L107.354 53.7787L107.576 53.9534L110.948 56.5978C111.066 56.6963 111.092 56.8578 111.021 56.9805L111.02 56.982L107.821 62.5247C107.82 62.5249 107.82 62.5251 107.82 62.5252C107.748 62.6492 107.596 62.7037 107.458 62.6537L103.48 61.0483L103.213 60.9407L102.986 61.1171C102.197 61.7299 101.331 62.2356 100.396 62.6266L100.134 62.7363L100.094 63.0179L99.4951 67.2493C99.4682 67.3924 99.3413 67.4999 99.1969 67.4999H92.797C92.6526 67.4999 92.5257 67.3924 92.4988 67.2493L91.9 63.0179L91.8602 62.7363L91.5978 62.6266C90.6643 62.2364 89.7975 61.7229 89.0053 61.1152L88.7787 60.9414L88.5138 61.0483L84.5313 62.6557C84.5312 62.6558 84.5311 62.6558 84.531 62.6559C84.4059 62.7057 84.2513 62.6584 84.1736 62.5251C84.1735 62.525 84.1734 62.5248 84.1733 62.5246L80.9757 56.9849C80.9755 56.9845 80.9753 56.9842 80.9751 56.9838C80.8968 56.8449 80.9348 56.686 81.0424 56.6008C81.0425 56.6007 81.0427 56.6005 81.0428 56.6004L84.4176 53.9534L84.6402 53.7787L84.6051 53.498C84.5424 52.9957 84.497 52.4986 84.497 52C84.497 51.5013 84.5424 51.0042 84.6051 50.502L84.6402 50.2212L84.4176 50.0465L81.0462 47.4021C80.9283 47.3037 80.9018 47.1422 80.9732 47.0193L80.974 47.0179L84.1734 41.4752C84.1735 41.4751 84.1736 41.4749 84.1737 41.4747C84.2461 41.3507 84.3984 41.2962 84.5364 41.3462L88.5139 42.9516L88.7806 43.0592L89.0078 42.8828C89.7967 42.27 90.6625 41.7643 91.5979 41.3733L91.8603 41.2636L91.9001 40.982L92.4989 36.7506C92.5258 36.6075 92.6526 36.5 92.797 36.5H99.197C99.3384 36.5 99.4706 36.6055 99.5041 36.7568L100.102 40.982L100.142 41.2636L100.404 41.3733C101.338 41.7635 102.204 42.277 102.997 42.8847L103.223 43.0585L103.488 42.9516L107.471 41.3442C107.471 41.3441 107.471 41.344 107.471 41.3439C107.596 41.2943 107.751 41.3416 107.828 41.4747C107.828 41.4749 107.829 41.4751 107.829 41.4753L111.026 47.015C111.027 47.0154 111.027 47.0158 111.027 47.0163C111.105 47.1551 111.067 47.3137 110.96 47.399C110.96 47.3992 110.959 47.3993 110.959 47.3995L107.577 50.0462L107.354 50.2208L107.389 50.502C107.452 51.0042 107.497 51.5013 107.497 52C107.497 52.4986 107.452 52.9957 107.389 53.498ZM89.897 52C89.897 55.3721 92.6248 58.1 95.997 58.1C99.3691 58.1 102.097 55.3722 102.097 52C102.097 48.6279 99.3691 45.9 95.997 45.9C92.6249 45.9 89.897 48.6278 89.897 52Z" fill="white" stroke="#312E2E"/>
<path d="M24.9476 34H15V43.9476H24.9476V34Z" fill="#312E2E" stroke="#312E2E" stroke-miterlimit="10" stroke-linecap="round" stroke-linejoin="round"/>
<path d="M24.9476 48.9476H15V58.8952H24.9476V48.9476Z" fill="white" stroke="#312E2E" stroke-miterlimit="10" stroke-linecap="round" stroke-linejoin="round"/>
<path d="M24.9476 63.8952H15V73.8428H24.9476V63.8952Z" fill="white" stroke="#312E2E" stroke-miterlimit="10" stroke-linecap="round" stroke-linejoin="round"/>
<path d="M24.9476 78.8428H15V88.7904H24.9476V78.8428Z" fill="white" stroke="#312E2E" stroke-miterlimit="10" stroke-linecap="round" stroke-linejoin="round"/>
<path d="M70.9069 77.834H31.3441C30.5992 77.834 30 78.4332 30 79.1781V108.49C30 109.235 30.5992 109.834 31.3441 109.834H70.9069C71.6518 109.834 72.251 109.235 72.251 108.49V79.1781C72.251 78.4494 71.6518 77.834 70.9069 77.834Z" fill="#312E2E" stroke="white" stroke-miterlimit="10" stroke-linecap="round" stroke-linejoin="round"/>
<path d="M47.147 95.8433C46.6244 95.8433 46.8898 95.8433 45.7952 95.8433H40.8361C36.6866 95.6851 36.6962 89.739 40.836 89.5849C41.1559 89.5849 41.4152 89.3255 41.4152 89.0057C41.4152 86.8283 43.1867 85.0568 45.3641 85.0568C45.7683 85.0568 46.1671 85.1178 46.5491 85.2379C46.775 85.309 47.0216 85.2352 47.1715 85.0517C51.6626 79.4322 60.9337 82.0277 61.9155 89.1324C61.9517 89.3843 62.148 89.5829 62.3994 89.6223C66.1776 90.329 65.7606 95.739 61.9177 95.8433H56.9587H54.5588" stroke="white"/>
<g clip-path="url(#clip0_1_148)">
<path d="M44.6153 96.5337V99.4252C45.6036 100.404 47.8585 100.946 51.1377 100.946C54.4169 100.946 56.6717 100.404 57.66 99.4252V96.5337C56.586 97.2648 54.6361 97.84 51.1377 97.84C47.6392 97.84 45.6893 97.2648 44.6153 96.5337Z" fill="white"/>
<path d="M44.6153 100.261V103.12C44.6153 104.548 47.8964 105.294 51.1377 105.294C54.379 105.294 57.66 104.548 57.66 103.12V100.261C56.586 100.992 54.6361 101.567 51.1377 101.567C47.6392 101.567 45.6893 100.992 44.6153 100.261Z" fill="white"/>
<path d="M51.1377 89.7647C47.8964 89.7647 44.6153 90.5114 44.6153 91.9388V91.9711C45.6036 92.9495 47.8585 93.4918 51.1377 93.4918C54.4169 93.4918 56.6717 92.9495 57.66 91.9711V91.9388C57.66 90.5114 54.379 89.7647 51.1377 89.7647Z" fill="white"/>
<path d="M44.6153 92.8067V95.6983C45.6036 96.6767 47.8585 97.2189 51.1377 97.2189C54.4169 97.2189 56.6717 96.6767 57.66 95.6983V92.8067C56.586 93.5379 54.6361 94.1131 51.1377 94.1131C47.6392 94.1131 45.6893 93.5379 44.6153 92.8067Z" fill="white"/>
</g>
<g filter="url(#filter0_b_1_148)">
<path d="M129.34 80.7318L104.679 75.1944L80 69.6575L87.086 92.227L94.1721 114.797L105.871 99.3859L118.219 110.318L125.597 103.169L113.23 92.237L129.34 80.7318Z" fill="url(#paint0_linear_1_148)" fill-opacity="0.8"/>
</g>
<defs>
<filter id="filter0_b_1_148" x="76" y="65.6575" width="57.3405" height="53.1392" filterUnits="userSpaceOnUse" color-interpolation-filters="sRGB">
<feFlood flood-opacity="0" result="BackgroundImageFix"/>
<feGaussianBlur in="BackgroundImageFix" stdDeviation="2"/>
<feComposite in2="SourceAlpha" operator="in" result="effect1_backgroundBlur_1_148"/>
<feBlend mode="normal" in="SourceGraphic" in2="effect1_backgroundBlur_1_148" result="shape"/>
</filter>
<linearGradient id="paint0_linear_1_148" x1="80" y1="69.6575" x2="143.598" y2="117.941" gradientUnits="userSpaceOnUse">
<stop stop-color="#4744FD"/>
<stop offset="1" stop-color="#CA6394"/>
</linearGradient>
<clipPath id="clip0_1_148">
<rect width="15.5294" height="16.9412" fill="white" transform="translate(43.3748 89.0588)"/>
</clipPath>
</defs>
</svg>
